<?xml version="1.0" encoding="UTF-8" standalone="no"?>
<svg
   xmlns:osb="http://www.openswatchbook.org/uri/2009/osb"
   xmlns:dc="http://purl.org/dc/elements/1.1/"
   xmlns:cc="http://creativecommons.org/ns#"
   xmlns:rdf="http://www.w3.org/1999/02/22-rdf-syntax-ns#"
   xmlns:svg="http://www.w3.org/2000/svg"
   xmlns="http://www.w3.org/2000/svg"
   xmlns:sodipodi="http://sodipodi.sourceforge.net/DTD/sodipodi-0.dtd"
   xmlns:inkscape="http://www.inkscape.org/namespaces/inkscape"
   width="3in"
   height="4.3000002in"
   viewBox="0 0 76.200049 109.22003"
   version="1.1"
   id="svg8"
   sodipodi:docname="silo.svg"
   inkscape:version="1.0.1 (3bc2e813f5, 2020-09-07)">
  <defs
     id="defs2">
    <rect
       x="22.816309"
       y="38.525898"
       width="44.884542"
       height="9.3509467"
       id="rect2749" />
    <inkscape:path-effect
       effect="powerstroke"
       id="path-effect2999"
       is_visible="true"
       lpeversion="1"
       offset_points="0,0.1322915"
       sort_points="true"
       interpolator_type="CubicBezierJohan"
       interpolator_beta="0.2"
       start_linecap_type="zerowidth"
       linejoin_type="extrp_arc"
       miter_limit="4"
       scale_width="1"
       end_linecap_type="zerowidth" />
    <linearGradient
       id="linearGradient2926"
       osb:paint="solid">
      <stop
         style="stop-color:#2c0f93;stop-opacity:1;"
         offset="0"
         id="stop2924" />
    </linearGradient>
    <inkscape:path-effect
       effect="powerstroke"
       id="path-effect16"
       is_visible="true"
       lpeversion="1"
       offset_points="0,0.1322915"
       sort_points="true"
       interpolator_type="CubicBezierJohan"
       interpolator_beta="0.2"
       start_linecap_type="zerowidth"
       linejoin_type="extrp_arc"
       miter_limit="4"
       scale_width="1"
       end_linecap_type="zerowidth" />
  </defs>
  <sodipodi:namedview
     id="base"
     pagecolor="#ffffff"
     bordercolor="#666666"
     borderopacity="1.0"
     inkscape:pageopacity="0.0"
     inkscape:pageshadow="2"
     inkscape:zoom="1.0729879"
     inkscape:cx="350.02522"
     inkscape:cy="188.72319"
     inkscape:document-units="mm"
     inkscape:current-layer="layer1"
     inkscape:document-rotation="0"
     showgrid="false"
     units="in"
     inkscape:window-width="1366"
     inkscape:window-height="705"
     inkscape:window-x="-8"
     inkscape:window-y="-8"
     inkscape:window-maximized="1"
     inkscape:snap-bbox="false"
     inkscape:bbox-nodes="false"
     inkscape:bbox-paths="false"
     inkscape:snap-global="true"
     inkscape:snap-nodes="false">
    <inkscape:grid
       type="xygrid"
       id="grid30" />
  </sodipodi:namedview>
  <metadata
     id="metadata5">
    <rdf:RDF>
      <cc:Work
         rdf:about="">
        <dc:format>image/svg+xml</dc:format>
        <dc:type
           rdf:resource="http://purl.org/dc/dcmitype/StillImage" />
        <dc:title />
      </cc:Work>
    </rdf:RDF>
  </metadata>
  <g
     inkscape:label="Capa 1"
     inkscape:groupmode="layer"
     id="layer1"
     style="display:inline">
    <g
       id="g2769">
      <rect
         style="opacity:1;fill:#f9f9f9;stroke:#f9f9f9;stroke-width:0.395023;stroke-linejoin:round;paint-order:markers stroke fill"
         id="rect2757"
         width="48.063862"
         height="50.49511"
         x="14.400457"
         y="18.514874" />
      <path
         sodipodi:type="star"
         style="fill:#a7ac93;stroke:#22241c;stroke-width:0.264405;stroke-linejoin:round;stroke-miterlimit:4;stroke-dasharray:none;stroke-opacity:1;paint-order:markers stroke fill"
         id="path38"
         sodipodi:sides="3"
         sodipodi:cx="97.895828"
         sodipodi:cy="132.29166"
         sodipodi:r1="26.458332"
         sodipodi:r2="13.229166"
         sodipodi:arg1="-1.5707963"
         sodipodi:arg2="-0.52359878"
         inkscape:flatsided="false"
         inkscape:rounded="-2.4286129e-17"
         inkscape:randomized="2.7755576e-17"
         d="m 97.895829,105.83332 11.456791,19.84375 11.4568,19.84375 -22.913592,0 -22.913588,0 11.456794,-19.84375 z"
         inkscape:transform-center-y="-1.5249115"
         transform="matrix(1.1026533,0,0,0.23053752,-69.787198,-16.890785)"
         inkscape:transform-center-x="2.2927591e-06" />
      <rect
         style="fill:#a7ac93;fill-opacity:1;stroke:#22241c;stroke-width:0.213771;stroke-linejoin:round;stroke-miterlimit:4;stroke-dasharray:none;stroke-opacity:1;paint-order:markers stroke fill"
         id="rect2932"
         width="7.8423924"
         height="2.614131"
         x="34.236759"
         y="6.2007008" />
      <path
         id="path3010"
         style="fill:#a7ac93;fill-opacity:1;stroke:#22241c;stroke-width:0.256085;stroke-linejoin:round;stroke-miterlimit:4;stroke-dasharray:none;stroke-opacity:1;paint-order:markers stroke fill"
         d="m 42.468414,27.181814 -0.04136,0.02374 0.07659,0.0084 z" />
      <path
         id="path3008"
         style="fill:#a7ac93;fill-opacity:1;stroke:#22241c;stroke-width:0.256085;stroke-linejoin:round;stroke-miterlimit:4;stroke-dasharray:none;stroke-opacity:1;paint-order:markers stroke fill"
         d="m 24.185581,22.577472 -0.03625,0.02936 -3.096877,2.507166 -3.981956,-0.589966 -0.03829,-0.0056 -0.02349,0.03089 -2.227883,2.970766 -0.03217,0.04289 0.03574,0.03983 3.830569,4.272471 -1.908008,3.375394 -0.01634,0.0291 0.01404,0.03038 1.617237,3.528567 -2.055053,2.642212 -0.02349,0.03038 0.01481,0.03523 2.810191,6.655567 -2.510996,4.874436 -0.01532,0.02936 0.01481,0.02987 2.063223,4.126191 -2.654211,4.2763 -0.04952,0.07965 0.0919,0.01889 6.485036,1.326467 0.146534,3.662081 0.0033,0.08271 0.07991,-0.02246 6.771467,-1.913626 1.168955,3.652891 0.02859,0.08935 0.07403,-0.0577 6.055389,-4.726114 6.348968,3.543374 0.04212,0.02349 0.03472,-0.03319 3.091261,-2.943707 6.94404,2.21614 0.02527,0.0079 0.02374,-0.01174 4.456022,-2.228138 0.01404,-0.0069 0.0094,-0.01302 2.376459,-3.267663 0.02757,-0.03804 -0.02706,-0.03829 -3.218649,-4.535159 4.673525,-1.752541 0.05999,-0.02246 -0.02119,-0.06025 -2.070627,-5.916513 2.365483,-5.174653 0.01302,-0.02834 -0.01404,-0.02783 -1.768623,-3.537501 1.027271,-2.348378 0.01302,-0.02936 -0.01557,-0.02834 -2.505125,-4.568092 1.906733,-2.64017 0.06229,-0.08603 -0.104924,-0.01685 -9.326627,-1.480404 -2.806616,-4.874436 -0.03242,-0.05642 -0.05667,0.03242 -5.899921,3.392497 0.03523,0.03217 -0.07659,-0.0084 0.04136,-0.02374 -3.380755,-3.08692 -0.03957,-0.03599 -0.04314,0.0314 -1.592986,1.158488 -2.337657,-1.899074 -0.03114,-0.02527 -0.03676,0.01634 -5.612212,2.510739 -5.169035,-3.249027 z m 0.0097,0.160576 5.159079,3.242645 0.02936,0.01864 0.03191,-0.0143 5.607618,-2.508442 2.345314,1.905456 0.0388,0.03166 0.04085,-0.02961 1.590688,-1.156702 3.376672,3.083091 0.07659,0.0084 5.884602,-3.383818 2.789513,4.845077 0.01557,0.02706 0.03089,0.0049 9.252337,1.468662 -1.868694,2.587325 -0.024,0.03344 0.01991,0.03625 2.509464,4.576261 -1.026761,2.347102 -0.01225,0.02808 0.01353,0.02732 1.768366,3.536736 -2.363439,5.170056 -0.01098,0.024 0.0087,0.02476 2.058373,5.881029 -4.693182,1.759688 -0.07939,0.02987 0.04901,0.06918 3.240604,4.566305 v 0 l -2.339444,3.216608 0.0143,-0.0069 -4.432279,2.215885 -6.955529,-2.219715 -0.03702,-0.01174 -0.02783,0.02655 -3.084369,2.937323 -6.344883,-3.541075 -0.03778,-0.02119 -0.03421,0.02655 -6.01582,4.695479 -1.159764,-3.624043 -0.01915,-0.06025 -0.06076,0.01736 -6.752576,1.908264 -0.145258,-3.630425 -0.002,-0.05106 -0.05029,-0.01047 -6.443423,-1.317787 2.624087,-4.227796 0.0194,-0.03089 -0.01634,-0.03268 -2.064499,-4.129253 2.509719,-4.872138 0.01404,-0.02706 -0.012,-0.02808 -2.807127,-6.648675 2.055819,-2.643233 0.02451,-0.0314 -0.01659,-0.03599 -1.620047,-3.534437 1.914647,-3.387138 0.02298,-0.04085 -0.03115,-0.03497 -3.82623,-4.267365 v 0 l 2.172485,-2.896478 3.971744,0.588436 0.02859,0.0041 0.02221,-0.01813 z" />
      <rect
         style="fill:#00ffcc;fill-opacity:1;stroke:#aa8800;stroke-width:0.195145;stroke-linejoin:round;stroke-miterlimit:4;stroke-dasharray:none;stroke-opacity:1;paint-order:markers stroke fill"
         id="rect3017"
         width="47.381126"
         height="46.341412"
         x="14.536016"
         y="22.657747" />
      <path
         id="path3006"
         style="fill:#a7ac93;fill-opacity:1;stroke:#22241c;stroke-width:0.256085;stroke-linejoin:round;stroke-miterlimit:4;stroke-dasharray:none;stroke-opacity:1;paint-order:markers stroke fill"
         d="M 13.162832,16.65713 V 71.55388 H 63.224206 V 16.65713 Z m 11.022749,5.920342 0.03957,0.02502 5.169035,3.249027 5.612212,-2.510739 0.03676,-0.01634 0.03114,0.02527 2.337657,1.899074 1.592986,-1.158488 0.04314,-0.0314 0.03957,0.03599 3.380755,3.08692 5.899921,-3.392497 0.05667,-0.03242 0.03242,0.05642 2.806616,4.874436 9.326627,1.480404 0.104924,0.01685 -0.06229,0.08603 -1.906733,2.64017 2.505125,4.568092 0.01557,0.02834 -0.01302,0.02936 -1.027271,2.348378 1.768623,3.537501 0.01404,0.02783 -0.01302,0.02834 -2.365483,5.174653 2.070627,5.916513 0.02119,0.06025 -0.05999,0.02246 -4.673525,1.752541 3.218649,4.535159 0.02706,0.03829 -0.02757,0.03804 -2.376459,3.267663 -0.0094,0.01302 -0.01404,0.0069 -4.456022,2.228138 -0.02374,0.01174 -0.02527,-0.0079 -6.94404,-2.21614 -3.091261,2.943707 -0.03472,0.03319 -0.04212,-0.02349 -6.348968,-3.543374 -6.055389,4.726114 -0.07403,0.0577 -0.02859,-0.08935 -1.168955,-3.652891 -6.771467,1.913626 -0.07991,0.02246 -0.0033,-0.08271 -0.146534,-3.662081 -6.485036,-1.326467 -0.0919,-0.01889 0.04952,-0.07965 2.654211,-4.2763 -2.063223,-4.126191 -0.01481,-0.02987 0.01532,-0.02936 2.510996,-4.874436 -2.810191,-6.655567 -0.01481,-0.03523 0.02349,-0.03038 2.055053,-2.642212 -1.617237,-3.528567 -0.01404,-0.03038 0.01634,-0.0291 1.908008,-3.375394 -3.830569,-4.272471 -0.03574,-0.03983 0.03217,-0.04289 2.227883,-2.970766 0.02349,-0.03089 0.03829,0.0056 3.981956,0.589966 3.096877,-2.507166 z" />
      <path
         id="path2959"
         style="fill:#a7ac93;fill-opacity:1;stroke:#22241c;stroke-width:0.304189;stroke-linejoin:round;stroke-miterlimit:4;stroke-dasharray:none;stroke-opacity:1;paint-order:markers stroke fill"
         d="m 63.072566,71.58477 -24.851092,0.0878 -24.850839,0.0876 12.541191,14.08389 6.64842,7.4661 h 11.641052 l 6.561367,-7.55392 z" />
      <path
         id="path2983"
         style="fill:#aa8800;fill-opacity:1;stroke:#aa8800;stroke-width:0.248501;stroke-linejoin:round;stroke-miterlimit:4;stroke-dasharray:none;stroke-opacity:1;paint-order:markers stroke fill"
         inkscape:transform-center-y="3.0294392"
         d="m 32.672572,93.54526 2.559244,8.12806 h 6.327525 l 2.559244,-8.12806 h -5.723006 z" />
      <text
         xml:space="preserve"
         id="text2747"
         style="font-style:normal;font-weight:normal;font-size:7.76111px;line-height:1.05;font-family:sans-serif;white-space:pre;shape-inside:url(#rect2749);fill:#000000;fill-opacity:1;stroke:none;"
         transform="translate(-1.6831703,1.4961514)"><tspan
           x="22.816406"
           y="44.829975"><tspan
             style="shape-inside:url(#rect2749)">%4,1f Hl</tspan></tspan></text>
    </g>
  </g>
</svg>
